<svg width="173" height="46" viewBox="0 0 173 46" fill="none" xmlns="http://www.w3.org/2000/svg">
<g filter="url(#filter0_d_1112_1259)">
<g clip-path="url(#clip0_1112_1259)">
<rect x="3" y="2" width="40" height="40" rx="4" fill="white"/>
</g>
</g>
<path d="M58.1847 29V14.4545H63.6392C64.7566 14.4545 65.6941 14.6487 66.4517 15.0369C67.214 15.4252 67.7893 15.9697 68.1776 16.6705C68.5705 17.3665 68.767 18.1785 68.767 19.1065C68.767 20.0393 68.5682 20.849 68.1705 21.5355C67.7775 22.2173 67.1974 22.7453 66.4304 23.1193C65.6634 23.4886 64.7211 23.6733 63.6037 23.6733H59.7188V21.4858H63.2486C63.902 21.4858 64.437 21.3958 64.8537 21.2159C65.2704 21.0312 65.5781 20.7637 65.777 20.4134C65.9806 20.0582 66.0824 19.6226 66.0824 19.1065C66.0824 18.5904 65.9806 18.1501 65.777 17.7855C65.5734 17.4162 65.2633 17.1368 64.8466 16.9474C64.4299 16.7533 63.8925 16.6562 63.2344 16.6562H60.8196V29H58.1847ZM65.6989 22.4091L69.2997 29H66.3594L62.8224 22.4091H65.6989ZM73.818 29.2202C73.1268 29.2202 72.5041 29.0971 71.9501 28.8509C71.4009 28.5999 70.9653 28.2306 70.6433 27.7429C70.3261 27.2552 70.1675 26.6539 70.1675 25.9389C70.1675 25.3234 70.2811 24.8144 70.5084 24.4119C70.7357 24.0095 71.0458 23.6875 71.4388 23.446C71.8318 23.2045 72.2745 23.0223 72.7669 22.8991C73.2641 22.7713 73.7778 22.679 74.3081 22.6222C74.9473 22.5559 75.4658 22.4967 75.8635 22.4446C76.2612 22.3878 76.55 22.3026 76.73 22.1889C76.9146 22.0705 77.007 21.8883 77.007 21.642V21.5994C77.007 21.0644 76.8483 20.6501 76.5311 20.3565C76.2139 20.063 75.757 19.9162 75.1604 19.9162C74.5306 19.9162 74.0311 20.0535 73.6618 20.3281C73.2972 20.6027 73.051 20.9271 72.9232 21.3011L70.5226 20.9602C70.712 20.2973 71.0245 19.7434 71.4601 19.2983C71.8957 18.8485 72.4284 18.5123 73.0581 18.2898C73.6878 18.0625 74.3839 17.9489 75.1462 17.9489C75.6717 17.9489 76.1949 18.0104 76.7158 18.1335C77.2366 18.2566 77.7125 18.4602 78.1433 18.7443C78.5742 19.0237 78.9198 19.4048 79.1803 19.8878C79.4454 20.3707 79.578 20.9744 79.578 21.6989V29H77.1064V27.5014H77.0212C76.8649 27.8045 76.6447 28.0885 76.3607 28.3537C76.0813 28.6141 75.7286 28.8248 75.3024 28.9858C74.881 29.142 74.3862 29.2202 73.818 29.2202ZM74.4857 27.331C75.0018 27.331 75.4492 27.2292 75.828 27.0256C76.2068 26.8172 76.498 26.5426 76.7016 26.2017C76.9099 25.8608 77.0141 25.4891 77.0141 25.0866V23.8011C76.9336 23.8674 76.7963 23.929 76.6021 23.9858C76.4127 24.0426 76.1997 24.0923 75.9629 24.1349C75.7262 24.1776 75.4918 24.2154 75.2598 24.2486C75.0278 24.2817 74.8266 24.3101 74.6561 24.3338C74.2726 24.3859 73.9293 24.4711 73.6263 24.5895C73.3232 24.7079 73.0841 24.8736 72.9089 25.0866C72.7338 25.295 72.6462 25.5649 72.6462 25.8963C72.6462 26.3698 72.819 26.7273 73.1646 26.9688C73.5103 27.2102 73.9506 27.331 74.4857 27.331ZM86.5075 33.3182C85.5842 33.3182 84.7911 33.1927 84.1283 32.9418C83.4654 32.6955 82.9327 32.3641 82.5303 31.9474C82.1278 31.5308 81.8484 31.0691 81.6922 30.5625L84.0075 30.0014C84.1117 30.2145 84.2632 30.4252 84.4621 30.6335C84.6609 30.8466 84.9285 31.0218 85.2646 31.1591C85.6055 31.3011 86.034 31.3722 86.5501 31.3722C87.2793 31.3722 87.883 31.1946 88.3612 30.8395C88.8394 30.4891 89.0786 29.9115 89.0786 29.1065V27.0398H88.9507C88.8181 27.3049 88.624 27.5772 88.3683 27.8565C88.1174 28.1359 87.7836 28.3703 87.3669 28.5597C86.955 28.7491 86.4365 28.8438 85.8115 28.8438C84.9734 28.8438 84.2135 28.6473 83.5317 28.2543C82.8546 27.8565 82.3148 27.2647 81.9124 26.4787C81.5146 25.688 81.3158 24.6984 81.3158 23.5099C81.3158 22.312 81.5146 21.3011 81.9124 20.4773C82.3148 19.6487 82.857 19.0213 83.5388 18.5952C84.2206 18.1643 84.9805 17.9489 85.8186 17.9489C86.4578 17.9489 86.9834 18.0578 87.3953 18.2756C87.812 18.4886 88.1434 18.7467 88.3896 19.0497C88.6358 19.348 88.8229 19.6297 88.9507 19.8949H89.0928V18.0909H91.6283V29.1776C91.6283 30.1103 91.4057 30.8821 90.9607 31.4929C90.5156 32.1037 89.9072 32.5606 89.1354 32.8636C88.3636 33.1667 87.4876 33.3182 86.5075 33.3182ZM86.5288 26.8267C87.0733 26.8267 87.5374 26.6941 87.9209 26.429C88.3044 26.1638 88.5956 25.7827 88.7945 25.2855C88.9933 24.7884 89.0928 24.1918 89.0928 23.4957C89.0928 22.8092 88.9933 22.2079 88.7945 21.6918C88.6003 21.1757 88.3115 20.7756 87.928 20.4915C87.5492 20.2027 87.0828 20.0582 86.5288 20.0582C85.9559 20.0582 85.4777 20.2074 85.0942 20.5057C84.7107 20.804 84.4218 21.2135 84.2277 21.7344C84.0336 22.2505 83.9365 22.8376 83.9365 23.4957C83.9365 24.1634 84.0336 24.7481 84.2277 25.25C84.4266 25.7472 84.7178 26.1354 85.1013 26.4148C85.4895 26.6894 85.9654 26.8267 86.5288 26.8267Z" fill="#171717"/>
<path d="M106.427 19.3622H103.771C103.695 18.9266 103.555 18.5407 103.352 18.2045C103.148 17.8636 102.895 17.5748 102.592 17.3381C102.289 17.1013 101.943 16.9238 101.555 16.8054C101.171 16.6823 100.757 16.6207 100.312 16.6207C99.5214 16.6207 98.8206 16.8196 98.2098 17.2173C97.599 17.6103 97.1208 18.188 96.7751 18.9503C96.4295 19.7079 96.2567 20.6335 96.2567 21.7273C96.2567 22.84 96.4295 23.7775 96.7751 24.5398C97.1255 25.2973 97.6037 25.8703 98.2098 26.2585C98.8206 26.642 99.519 26.8338 100.305 26.8338C100.741 26.8338 101.148 26.777 101.527 26.6634C101.91 26.545 102.253 26.3722 102.556 26.1449C102.864 25.9176 103.122 25.6383 103.331 25.3068C103.544 24.9754 103.69 24.5966 103.771 24.1705L106.427 24.1847C106.328 24.8759 106.112 25.5246 105.781 26.1307C105.454 26.7367 105.026 27.2718 104.495 27.7358C103.965 28.1951 103.345 28.5549 102.635 28.8153C101.924 29.071 101.136 29.1989 100.269 29.1989C98.9911 29.1989 97.85 28.9029 96.8462 28.3111C95.8424 27.7192 95.0517 26.8646 94.474 25.7472C93.8964 24.6297 93.6075 23.2898 93.6075 21.7273C93.6075 20.16 93.8987 18.8201 94.4811 17.7074C95.0635 16.59 95.8566 15.7353 96.8604 15.1435C97.8642 14.5516 99.0005 14.2557 100.269 14.2557C101.079 14.2557 101.832 14.3693 102.528 14.5966C103.224 14.8239 103.844 15.1577 104.389 15.598C104.933 16.0336 105.381 16.5687 105.731 17.2031C106.086 17.8329 106.318 18.5526 106.427 19.3622ZM113.085 29.2131C112.02 29.2131 111.096 28.9787 110.315 28.5099C109.534 28.0412 108.928 27.3854 108.497 26.5426C108.071 25.6998 107.858 24.715 107.858 23.5881C107.858 22.4612 108.071 21.474 108.497 20.6264C108.928 19.7789 109.534 19.1207 110.315 18.652C111.096 18.1832 112.02 17.9489 113.085 17.9489C114.15 17.9489 115.074 18.1832 115.855 18.652C116.636 19.1207 117.24 19.7789 117.666 20.6264C118.097 21.474 118.312 22.4612 118.312 23.5881C118.312 24.715 118.097 25.6998 117.666 26.5426C117.24 27.3854 116.636 28.0412 115.855 28.5099C115.074 28.9787 114.15 29.2131 113.085 29.2131ZM113.099 27.1534C113.677 27.1534 114.16 26.9948 114.548 26.6776C114.936 26.3556 115.225 25.9247 115.415 25.3849C115.609 24.8452 115.706 24.2438 115.706 23.581C115.706 22.9134 115.609 22.3097 115.415 21.7699C115.225 21.2254 114.936 20.7921 114.548 20.4702C114.16 20.1482 113.677 19.9872 113.099 19.9872C112.507 19.9872 112.015 20.1482 111.622 20.4702C111.234 20.7921 110.942 21.2254 110.748 21.7699C110.559 22.3097 110.464 22.9134 110.464 23.581C110.464 24.2438 110.559 24.8452 110.748 25.3849C110.942 25.9247 111.234 26.3556 111.622 26.6776C112.015 26.9948 112.507 27.1534 113.099 27.1534ZM122.665 22.608V29H120.094V18.0909H122.552V19.9446H122.68C122.931 19.3338 123.331 18.8485 123.88 18.4886C124.434 18.1288 125.118 17.9489 125.933 17.9489C126.685 17.9489 127.341 18.1098 127.9 18.4318C128.463 18.7538 128.899 19.2202 129.207 19.831C129.519 20.4418 129.673 21.1828 129.668 22.054V29H127.097V22.4517C127.097 21.7225 126.908 21.152 126.529 20.7401C126.155 20.3281 125.637 20.1222 124.974 20.1222C124.524 20.1222 124.124 20.2216 123.773 20.4205C123.428 20.6146 123.156 20.8963 122.957 21.2656C122.763 21.6349 122.665 22.0824 122.665 22.608ZM134.453 22.608V29H131.882V18.0909H134.339V19.9446H134.467C134.718 19.3338 135.118 18.8485 135.667 18.4886C136.221 18.1288 136.906 17.9489 137.72 17.9489C138.473 17.9489 139.129 18.1098 139.687 18.4318C140.251 18.7538 140.686 19.2202 140.994 19.831C141.307 20.4418 141.461 21.1828 141.456 22.054V29H138.885V22.4517C138.885 21.7225 138.695 21.152 138.317 20.7401C137.943 20.3281 137.424 20.1222 136.761 20.1222C136.311 20.1222 135.911 20.2216 135.561 20.4205C135.215 20.6146 134.943 20.8963 134.744 21.2656C134.55 21.6349 134.453 22.0824 134.453 22.608ZM148.499 29.2131C147.405 29.2131 146.461 28.9858 145.665 28.5312C144.874 28.072 144.266 27.4233 143.84 26.5852C143.414 25.7424 143.201 24.7505 143.201 23.6094C143.201 22.4872 143.414 21.5024 143.84 20.6548C144.271 19.8026 144.872 19.1397 145.644 18.6662C146.416 18.188 147.322 17.9489 148.364 17.9489C149.036 17.9489 149.671 18.0578 150.267 18.2756C150.869 18.4886 151.399 18.8201 151.858 19.2699C152.322 19.7197 152.687 20.2926 152.952 20.9886C153.217 21.6799 153.35 22.5038 153.35 23.4602V24.2486H144.408V22.5156H150.885C150.881 22.0232 150.774 21.5852 150.566 21.2017C150.357 20.8134 150.066 20.508 149.692 20.2855C149.323 20.063 148.892 19.9517 148.4 19.9517C147.874 19.9517 147.412 20.0795 147.015 20.3352C146.617 20.5862 146.307 20.9176 146.084 21.3295C145.866 21.7367 145.755 22.1842 145.75 22.6719V24.1847C145.75 24.8191 145.866 25.3636 146.098 25.8182C146.33 26.268 146.655 26.6136 147.071 26.8551C147.488 27.0919 147.976 27.2102 148.535 27.2102C148.909 27.2102 149.247 27.1581 149.55 27.054C149.853 26.9451 150.116 26.7865 150.338 26.5781C150.561 26.3698 150.729 26.1117 150.843 25.804L153.243 26.0739C153.092 26.7083 152.803 27.2623 152.377 27.7358C151.955 28.2045 151.416 28.5691 150.758 28.8295C150.099 29.0852 149.347 29.2131 148.499 29.2131ZM159.883 29.2131C158.794 29.2131 157.859 28.974 157.078 28.4957C156.302 28.0175 155.703 27.357 155.281 26.5142C154.865 25.6667 154.656 24.6913 154.656 23.5881C154.656 22.4801 154.869 21.5024 155.295 20.6548C155.722 19.8026 156.323 19.1397 157.099 18.6662C157.881 18.188 158.804 17.9489 159.869 17.9489C160.755 17.9489 161.538 18.1122 162.22 18.4389C162.907 18.7609 163.454 19.2178 163.861 19.8097C164.268 20.3968 164.5 21.0833 164.557 21.8693H162.099C162 21.3437 161.763 20.9058 161.389 20.5554C161.02 20.2003 160.525 20.0227 159.905 20.0227C159.379 20.0227 158.918 20.1648 158.52 20.4489C158.122 20.7282 157.812 21.1307 157.589 21.6562C157.372 22.1818 157.263 22.8116 157.263 23.5455C157.263 24.2888 157.372 24.928 157.589 25.4631C157.807 25.9934 158.113 26.4029 158.506 26.6918C158.903 26.9759 159.37 27.1179 159.905 27.1179C160.284 27.1179 160.622 27.0469 160.92 26.9048C161.223 26.758 161.477 26.5473 161.68 26.2727C161.884 25.9981 162.024 25.6643 162.099 25.2713H164.557C164.495 26.0431 164.268 26.7273 163.875 27.3239C163.482 27.9157 162.947 28.3797 162.27 28.7159C161.593 29.0473 160.797 29.2131 159.883 29.2131ZM171.715 18.0909V20.0795H165.444V18.0909H171.715ZM166.992 15.4773H169.563V25.7188C169.563 26.0644 169.615 26.3295 169.72 26.5142C169.829 26.6941 169.971 26.8172 170.146 26.8835C170.321 26.9498 170.515 26.983 170.728 26.983C170.889 26.983 171.036 26.9711 171.168 26.9474C171.306 26.9238 171.41 26.9025 171.481 26.8835L171.914 28.8935C171.777 28.9408 171.58 28.9929 171.325 29.0497C171.074 29.1065 170.766 29.1397 170.401 29.1491C169.757 29.1681 169.177 29.071 168.661 28.858C168.145 28.6402 167.736 28.304 167.433 27.8494C167.134 27.3949 166.988 26.8267 166.992 26.1449V15.4773Z" fill="#171717" fill-opacity="0.35"/>
<defs>
<filter id="filter0_d_1112_1259" x="0.5" y="0.75" width="45" height="45" filterUnits="userSpaceOnUse" color-interpolation-filters="sRGB">
<feFlood flood-opacity="0" result="BackgroundImageFix"/>
<feColorMatrix in="SourceAlpha" type="matrix" values="0 0 0 0 0 0 0 0 0 0 0 0 0 0 0 0 0 0 127 0" result="hardAlpha"/>
<feOffset dy="1.25"/>
<feGaussianBlur stdDeviation="1.25"/>
<feColorMatrix type="matrix" values="0 0 0 0 0.0627451 0 0 0 0 0.0941176 0 0 0 0 0.156863 0 0 0 0.05 0"/>
<feBlend mode="normal" in2="BackgroundImageFix" result="effect1_dropShadow_1112_1259"/>
<feBlend mode="normal" in="SourceGraphic" in2="effect1_dropShadow_1112_1259" result="shape"/>
</filter>
<clipPath id="clip0_1112_1259">
<rect x="3" y="2" width="40" height="40" rx="4" fill="white"/>
</clipPath>
</defs>
</svg>
