<svg width="80" height="80" viewBox="0 0 80 80" fill="none" xmlns="http://www.w3.org/2000/svg">
<g opacity="0.2">
<path d="M35.8478 11.5288C38.2405 9.48974 41.7597 9.48974 44.1525 11.5288L48.2224 14.9971C49.2477 15.8709 50.5226 16.399 51.8655 16.5062L57.1958 16.9315C60.3296 17.1816 62.818 19.6701 63.0681 22.8039L63.4935 28.1342C63.6006 29.4771 64.1287 30.7519 65.0025 31.7773L68.4708 35.8472C70.5099 38.2399 70.5099 41.7591 68.4708 44.1519L65.0025 48.2218C64.1287 49.2471 63.6006 50.522 63.4935 51.8649L63.0681 57.1952C62.818 60.3289 60.3296 62.8174 57.1958 63.0675L51.8655 63.4929C50.5226 63.6 49.2477 64.1281 48.2224 65.0019L44.1525 68.4702C41.7597 70.5093 38.2405 70.5093 35.8478 68.4702L31.7779 65.0019C30.7525 64.1281 29.4777 63.6 28.1348 63.4929L22.8045 63.0675C19.6707 62.8174 17.1822 60.3289 16.9321 57.1952L16.5068 51.8649C16.3996 50.522 15.8716 49.2471 14.9978 48.2218L11.5294 44.1519C9.49035 41.7591 9.49035 38.2399 11.5294 35.8472L14.9978 31.7773C15.8716 30.7519 16.3996 29.4771 16.5068 28.1342L16.9321 22.8039C17.1822 19.6701 19.6707 17.1816 22.8045 16.9315L28.1348 16.5062C29.4777 16.399 30.7525 15.8709 31.7779 14.9971L35.8478 11.5288Z" stroke="#17191F" stroke-width="6.25" stroke-linecap="round" stroke-linejoin="round"/>
<path d="M49.9998 33.3333L36.6664 46.6666L29.9998 39.9999" stroke="#17191F" stroke-width="6.25" stroke-linecap="round" stroke-linejoin="round"/>
</g>
</svg>
