<svg width="40" height="40" viewBox="0 0 40 40" fill="none" xmlns="http://www.w3.org/2000/svg">
<g clip-path="url(#clip0_1112_3740)">
<rect width="40" height="40" rx="4" fill="#EFF3F3"/>
<path d="M14.6723 23.0397C14.6723 24.2185 13.7399 25.1712 12.5862 25.1712C11.4325 25.1712 10.5 24.2185 10.5 23.0397C10.5 21.8609 11.4325 20.9082 12.5862 20.9082H14.6723V23.0397ZM15.7154 23.0397C15.7154 21.8609 16.6479 20.9082 17.8016 20.9082C18.9553 20.9082 19.8878 21.8609 19.8878 23.0397V28.3685C19.8878 29.5473 18.9553 30.5 17.8016 30.5C16.6479 30.5 15.7154 29.5473 15.7154 28.3685V23.0397Z" fill="#E01E5A"/>
<path d="M17.8051 14.6653C16.6533 14.6653 15.7224 13.7344 15.7224 12.5827C15.7224 11.4309 16.6533 10.5 17.8051 10.5C18.9569 10.5 19.8878 11.4309 19.8878 12.5827V14.6653H17.8051ZM17.8051 15.7224C18.9569 15.7224 19.8878 16.6533 19.8878 17.8051C19.8878 18.9569 18.9569 19.8878 17.8051 19.8878H12.5827C11.4309 19.8878 10.5 18.9569 10.5 17.8051C10.5 16.6533 11.4309 15.7224 12.5827 15.7224H17.8051Z" fill="#36C5F0"/>
<path d="M26.3277 17.8051C26.3277 16.6533 27.2601 15.7224 28.4138 15.7224C29.5675 15.7224 30.5 16.6533 30.5 17.8051C30.5 18.9569 29.5675 19.8878 28.4138 19.8878H26.3277V17.8051ZM25.2846 17.8051C25.2846 18.9569 24.3521 19.8878 23.1984 19.8878C22.0447 19.8878 21.1122 18.9569 21.1122 17.8051V12.5827C21.1122 11.4309 22.0447 10.5 23.1984 10.5C24.3521 10.5 25.2846 11.4309 25.2846 12.5827V17.8051Z" fill="#2EB67D"/>
<path d="M23.1949 26.237C24.3467 26.237 25.2776 27.1897 25.2776 28.3685C25.2776 29.5473 24.3467 30.5 23.1949 30.5C22.0431 30.5 21.1122 29.5473 21.1122 28.3685V26.237H23.1949ZM23.1949 25.1712C22.0431 25.1712 21.1122 24.2185 21.1122 23.0397C21.1122 21.8609 22.0431 20.9082 23.1949 20.9082H28.4173C29.5691 20.9082 30.5 21.8609 30.5 23.0397C30.5 24.2185 29.5691 25.1712 28.4173 25.1712H23.1949Z" fill="#ECB22E"/>
</g>
<defs>
<clipPath id="clip0_1112_3740">
<rect width="40" height="40" fill="white"/>
</clipPath>
</defs>
</svg>
